# Blender 3.4.1
# www.blender.org
mtllib stair.mtl
o Cube
v 0.500000 1.000050 -0.505421
v 0.500000 0.000050 -0.505421
v 0.500000 0.000050 0.494579
v -0.500000 1.000050 -0.505421
v -0.500000 0.000050 -0.505421
v -0.500000 0.000050 0.494579
vn 1.0000 -0.0000 -0.0000
vn -0.0000 0.7071 0.7071
vn -1.0000 -0.0000 -0.0000
vn -0.0000 -1.0000 -0.0000
vn -0.0000 -0.0000 -1.0000
vt 0.062534 0.924142
vt 0.625000 0.500000
vt 0.375000 0.500000
vt 0.062518 0.763714
vt 0.375000 0.750000
vt 0.187507 0.924183
vt 0.625000 0.250000
vt 0.125000 0.500000
vt 0.375000 0.250000
vt 0.187490 0.763770
vt 0.125000 0.750000
s 0
usemtl Material
f 2/3/1 1/2/1 3/5/1
f 1/1/2 4/6/2 6/10/2 3/4/2
f 5/9/3 6/11/3 4/7/3
f 5/8/4 2/3/4 3/5/4 6/11/4
f 5/9/5 4/7/5 1/2/5 2/3/5
